<svg width="315" height="136" viewBox="0 0 315 136" fill="none" xmlns="http://www.w3.org/2000/svg">
<g clip-path="url(#clip0_1_90)">
<path d="M311.395 19.9534C311.395 19.9534 16.8019 19.9534 7.86381 19.9534C2.62927 19.9534 0.464 21.3382 0.500452 23.1706L3.60619 116.038C3.60619 116.038 298.418 116.038 307.137 116.038C312.379 116.038 314.544 114.662 314.508 112.821L311.395 19.9534Z" fill="url(#paint0_linear_1_90)"/>
<path d="M20.5561 129.135C20.6218 132.58 16.386 136 8.11133 136V110.879L19.2511 123.039L20.352 126.492L20.5561 129.135Z" fill="url(#paint1_linear_1_90)"/>
<path d="M0.50075 23.0692C0.427846 25.8895 5.67697 29.8582 12.9164 31.5385C18.0051 32.7207 20.5131 35.3384 20.5568 37.9476V129.135C20.5058 126.526 17.9978 123.908 12.9164 122.726C5.68427 121.054 0.427846 117.085 0.50075 114.265" fill="url(#paint2_linear_1_90)"/>
<path d="M294.444 6.86502C294.378 3.4114 298.614 0 306.889 0V25.1211L295.749 12.9616L294.648 9.50801L294.444 6.86502Z" fill="url(#paint3_linear_1_90)"/>
<path d="M314.499 112.931C314.572 110.11 309.323 106.142 302.084 104.461C296.995 103.279 294.487 100.662 294.443 98.0524V6.86499C294.494 9.4742 297.002 12.0919 302.084 13.274C309.323 14.946 314.572 18.9147 314.499 21.735" fill="url(#paint4_linear_1_90)"/>
<path d="M66.5 78V76H64.5V72H62.5V64H60.5V58H64.5V64H66.5V74H68.5V66H72.5V74H74.5V64H76.5V58H80.5V64H78.5V72H76.5V76H74.5V78H66.5ZM82.5 78V76H84.5V60H82.5V58H90.5V60H88.5V76H90.5V78H82.5ZM92.5 78V58H96.5V60H98.5V64H100.5V68H102.5V58H106.5V78H102.5V74H100.5V70H98.5V66H96.5V78H92.5ZM124.5 76V70H122.5V76H124.5ZM120.5 64V60H118.5V64H120.5ZM120.5 80V78H116.5V76H114.5V74H118.5V76H120.5V68H116.5V66H114.5V60H116.5V58H120.5V56H122.5V58H126.5V62H124.5V60H122.5V66H126.5V68H128.5V76H126.5V78H122.5V80H120.5ZM132.5 78V76H130.5V74H134.5V76H138.5V68H134.5V66H138.5V60H134.5V62H130.5V60H132.5V58H140.5V60H142.5V66H140.5V68H142.5V76H140.5V78H132.5ZM146.5 78V76H144.5V74H148.5V76H152.5V68H148.5V66H152.5V60H148.5V62H144.5V60H146.5V58H154.5V60H156.5V66H154.5V68H156.5V76H154.5V78H146.5ZM166.5 78V76H164.5V60H166.5V58H174.5V60H176.5V62H172.5V60H168.5V76H172.5V74H176.5V76H174.5V78H166.5ZM188.5 76V60H182.5V76H188.5ZM180.5 78V76H178.5V60H180.5V58H190.5V60H192.5V76H190.5V78H180.5ZM196.5 78V76H194.5V58H198.5V76H202.5V58H206.5V76H204.5V78H196.5ZM216.5 68V60H212.5V68H216.5ZM208.5 78V58H218.5V60H220.5V68H218.5V70H212.5V78H208.5ZM232.5 76V60H226.5V76H232.5ZM224.5 78V76H222.5V60H224.5V58H234.5V60H236.5V76H234.5V78H224.5ZM238.5 78V58H242.5V60H244.5V64H246.5V68H248.5V58H252.5V78H248.5V74H246.5V70H244.5V66H242.5V78H238.5Z" fill="#F5F5F5"/>
</g>
<defs>
<linearGradient id="paint0_linear_1_90" x1="0.500459" y1="67.9991" x2="314.504" y2="67.9991" gradientUnits="userSpaceOnUse">
<stop stop-color="#AF7500"/>
<stop offset="0.0601379" stop-color="#C28A0F"/>
<stop offset="0.1438" stop-color="#D79F1E"/>
<stop offset="0.2365" stop-color="#E5AE29"/>
<stop offset="0.3442" stop-color="#EDB730"/>
<stop offset="0.5028" stop-color="#F0BA32"/>
<stop offset="0.6531" stop-color="#EDB730"/>
<stop offset="0.7613" stop-color="#E5AE29"/>
<stop offset="0.8563" stop-color="#D69E1E"/>
<stop offset="0.9432" stop-color="#C1880E"/>
<stop offset="1" stop-color="#AF7500"/>
</linearGradient>
<linearGradient id="paint1_linear_1_90" x1="8.1166" y1="123.44" x2="20.5598" y2="123.44" gradientUnits="userSpaceOnUse">
<stop stop-color="#F0BA32"/>
<stop offset="1" stop-color="#AF7500"/>
</linearGradient>
<linearGradient id="paint2_linear_1_90" x1="0.50075" y1="76.1043" x2="20.5597" y2="76.1043" gradientUnits="userSpaceOnUse">
<stop stop-color="#D89B13"/>
<stop offset="0.4916" stop-color="#FFD880"/>
<stop offset="1" stop-color="#D89B13"/>
</linearGradient>
<linearGradient id="paint3_linear_1_90" x1="306.887" y1="12.5585" x2="294.443" y2="12.5585" gradientUnits="userSpaceOnUse">
<stop stop-color="#F0BA32"/>
<stop offset="1" stop-color="#AF7500"/>
</linearGradient>
<linearGradient id="paint4_linear_1_90" x1="294.444" y1="59.8939" x2="314.503" y2="59.8939" gradientUnits="userSpaceOnUse">
<stop stop-color="#D89B13"/>
<stop offset="0.4916" stop-color="#FFD880"/>
<stop offset="1" stop-color="#D89B13"/>
</linearGradient>
<clipPath id="clip0_1_90">
<rect width="314" height="136" fill="white" transform="translate(0.5)"/>
</clipPath>
</defs>
</svg>
